<svg xmlns="http://www.w3.org/2000/svg" xmlns:xlink="http://www.w3.org/1999/xlink" width="500" zoomAndPan="magnify" viewBox="0 0 375 374.999991" height="500" preserveAspectRatio="xMidYMid meet" version="1.0"><defs><g/><clipPath id="d6f69b4236"><path d="M 0 136.257812 L 102.484375 136.257812 L 102.484375 238.742188 L 0 238.742188 Z M 0 136.257812 " clip-rule="nonzero"/></clipPath><clipPath id="040cd9b554"><path d="M 51.242188 136.257812 C 22.941406 136.257812 0 159.199219 0 187.5 C 0 215.800781 22.941406 238.742188 51.242188 238.742188 C 79.542969 238.742188 102.484375 215.800781 102.484375 187.5 C 102.484375 159.199219 79.542969 136.257812 51.242188 136.257812 " clip-rule="nonzero"/></clipPath><clipPath id="1c29657f6c"><path d="M 136.261719 136.257812 L 238.746094 136.257812 L 238.746094 238.742188 L 136.261719 238.742188 Z M 136.261719 136.257812 " clip-rule="nonzero"/></clipPath><clipPath id="e3160e1cde"><path d="M 187.503906 136.257812 C 159.203125 136.257812 136.261719 159.199219 136.261719 187.5 C 136.261719 215.800781 159.203125 238.742188 187.503906 238.742188 C 215.804688 238.742188 238.746094 215.800781 238.746094 187.5 C 238.746094 159.199219 215.804688 136.257812 187.503906 136.257812 " clip-rule="nonzero"/></clipPath><clipPath id="777ce0d4db"><path d="M 272.515625 136.257812 L 375 136.257812 L 375 238.742188 L 272.515625 238.742188 Z M 272.515625 136.257812 " clip-rule="nonzero"/></clipPath><clipPath id="07c21c881f"><path d="M 323.757812 136.257812 C 295.457031 136.257812 272.515625 159.199219 272.515625 187.5 C 272.515625 215.800781 295.457031 238.742188 323.757812 238.742188 C 352.058594 238.742188 375 215.800781 375 187.5 C 375 159.199219 352.058594 136.257812 323.757812 136.257812 " clip-rule="nonzero"/></clipPath><clipPath id="362a007875"><path d="M 94.066406 168.832031 L 145.148438 168.832031 L 145.148438 206.167969 L 94.066406 206.167969 Z M 94.066406 168.832031 " clip-rule="nonzero"/></clipPath><clipPath id="212888751a"><path d="M 233.414062 168.832031 L 284.496094 168.832031 L 284.496094 206.167969 L 233.414062 206.167969 Z M 233.414062 168.832031 " clip-rule="nonzero"/></clipPath><clipPath id="78e500772c"><path d="M 13.808594 150.574219 L 87.65625 150.574219 L 87.65625 224.425781 L 13.808594 224.425781 Z M 13.808594 150.574219 " clip-rule="nonzero"/></clipPath><clipPath id="cf12bd8aff"><path d="M 50.734375 150.574219 C 30.339844 150.574219 13.808594 167.105469 13.808594 187.5 C 13.808594 207.894531 30.339844 224.425781 50.734375 224.425781 C 71.125 224.425781 87.65625 207.894531 87.65625 187.5 C 87.65625 167.105469 71.125 150.574219 50.734375 150.574219 " clip-rule="nonzero"/></clipPath><clipPath id="8e2e51ff04"><path d="M 150.574219 150.574219 L 224.425781 150.574219 L 224.425781 224.425781 L 150.574219 224.425781 Z M 150.574219 150.574219 " clip-rule="nonzero"/></clipPath><clipPath id="f7d6a11334"><path d="M 187.5 150.574219 C 167.105469 150.574219 150.574219 167.105469 150.574219 187.5 C 150.574219 207.894531 167.105469 224.425781 187.5 224.425781 C 207.894531 224.425781 224.425781 207.894531 224.425781 187.5 C 224.425781 167.105469 207.894531 150.574219 187.5 150.574219 " clip-rule="nonzero"/></clipPath><clipPath id="2b81f1e5cf"><path d="M 287.425781 150.574219 L 361.277344 150.574219 L 361.277344 224.425781 L 287.425781 224.425781 Z M 287.425781 150.574219 " clip-rule="nonzero"/></clipPath><clipPath id="c45a62c23d"><path d="M 324.351562 150.574219 C 303.957031 150.574219 287.425781 167.105469 287.425781 187.5 C 287.425781 207.894531 303.957031 224.425781 324.351562 224.425781 C 344.746094 224.425781 361.277344 207.894531 361.277344 187.5 C 361.277344 167.105469 344.746094 150.574219 324.351562 150.574219 " clip-rule="nonzero"/></clipPath></defs><g clip-path="url(#d6f69b4236)"><g clip-path="url(#040cd9b554)"><path fill="#d9d9d9" d="M 0 136.257812 L 102.484375 136.257812 L 102.484375 238.742188 L 0 238.742188 Z M 0 136.257812 " fill-opacity="1" fill-rule="nonzero"/></g></g><g clip-path="url(#1c29657f6c)"><g clip-path="url(#e3160e1cde)"><path fill="#d9d9d9" d="M 136.261719 136.257812 L 238.746094 136.257812 L 238.746094 238.742188 L 136.261719 238.742188 Z M 136.261719 136.257812 " fill-opacity="1" fill-rule="nonzero"/></g></g><g clip-path="url(#777ce0d4db)"><g clip-path="url(#07c21c881f)"><path fill="#d9d9d9" d="M 272.515625 136.257812 L 375 136.257812 L 375 238.742188 L 272.515625 238.742188 Z M 272.515625 136.257812 " fill-opacity="1" fill-rule="nonzero"/></g></g><g clip-path="url(#362a007875)"><path fill="#d9d9d9" d="M 94.066406 168.832031 L 145.148438 168.832031 L 145.148438 206.167969 L 94.066406 206.167969 Z M 94.066406 168.832031 " fill-opacity="1" fill-rule="nonzero"/></g><g clip-path="url(#212888751a)"><path fill="#d9d9d9" d="M 233.414062 168.832031 L 284.496094 168.832031 L 284.496094 206.167969 L 233.414062 206.167969 Z M 233.414062 168.832031 " fill-opacity="1" fill-rule="nonzero"/></g><g clip-path="url(#78e500772c)"><g clip-path="url(#cf12bd8aff)"><path fill="#4c14bd" d="M 13.808594 150.574219 L 87.65625 150.574219 L 87.65625 224.425781 L 13.808594 224.425781 Z M 13.808594 150.574219 " fill-opacity="1" fill-rule="nonzero"/></g></g><g fill="#ffffff" fill-opacity="1"><g transform="translate(44.967261, 195.574499)"><g><path d="M 1.816406 -13.972656 C 2.226562 -13.945312 2.917969 -14.382812 3.378906 -14.382812 C 3.683594 -14.382812 3.914062 -14.175781 3.914062 -13.539062 L 3.914062 -2.507812 C 3.914062 -2.046875 3.632812 -1.613281 3.222656 -1.40625 C 3.019531 -1.304688 2.839844 -1.203125 2.710938 -1.101562 C 2.277344 -0.792969 2.507812 0 3.019531 0 L 10.441406 0 C 10.976562 0 11.207031 -0.792969 10.773438 -1.101562 C 10.621094 -1.203125 10.464844 -1.304688 10.339844 -1.382812 C 9.929688 -1.636719 9.671875 -2.074219 9.671875 -2.507812 L 9.671875 -15.941406 C 9.671875 -16.914062 9.546875 -17.964844 8.625 -18.296875 C 7.394531 -18.757812 3.070312 -16.632812 1.457031 -15.710938 C 0.460938 -15.148438 0.921875 -14.023438 1.816406 -13.972656 Z M 1.816406 -13.972656 "/></g></g></g><g clip-path="url(#8e2e51ff04)"><g clip-path="url(#f7d6a11334)"><path fill="#4c14bd" d="M 150.574219 150.574219 L 224.425781 150.574219 L 224.425781 224.425781 L 150.574219 224.425781 Z M 150.574219 150.574219 " fill-opacity="1" fill-rule="nonzero"/></g></g><g fill="#ffffff" fill-opacity="1"><g transform="translate(179.086223, 195.574499)"><g><path d="M 1.382812 0 L 9.570312 0 C 11.207031 0 13 0 14.457031 0.0273438 C 14.917969 0.0273438 15.304688 -0.28125 15.40625 -0.742188 L 16.171875 -4.144531 C 16.25 -4.605469 16.019531 -4.964844 15.585938 -5.042969 L 13.84375 -5.375 C 13.382812 -5.476562 12.921875 -5.273438 12.71875 -4.863281 C 12.460938 -4.425781 12.078125 -3.863281 11.3125 -3.839844 L 5.195312 -3.660156 C 6.984375 -5.785156 15.710938 -7.242188 16.019531 -12.769531 C 16.222656 -16.378906 13.484375 -18.5 8.855469 -18.5 C 4.53125 -18.554688 1.738281 -16.378906 1.585938 -13.820312 C 1.511719 -12.335938 2.355469 -11.234375 3.839844 -11.105469 C 5.015625 -11.003906 5.707031 -11.542969 6.089844 -12.460938 C 6.78125 -14.152344 6.21875 -16.8125 8.546875 -16.941406 C 9.800781 -17.015625 10.902344 -15.839844 10.441406 -13.410156 C 9.316406 -7.675781 -0.257812 -6.628906 1.382812 0 Z M 1.382812 0 "/></g></g></g><g clip-path="url(#2b81f1e5cf)"><g clip-path="url(#c45a62c23d)"><path fill="#4c14bd" d="M 287.425781 150.574219 L 361.277344 150.574219 L 361.277344 224.425781 L 287.425781 224.425781 Z M 287.425781 150.574219 " fill-opacity="1" fill-rule="nonzero"/></g></g><g fill="#ffffff" fill-opacity="1"><g transform="translate(315.503626, 195.574499)"><g><path d="M 1.203125 -2.867188 C 2.304688 -0.589844 5.21875 0.359375 8.597656 0.359375 C 14.253906 0.332031 17.273438 -2.457031 16.964844 -6.140625 C 16.734375 -8.929688 14.6875 -10.671875 11.15625 -11.15625 C 13.742188 -11.898438 14.945312 -12.949219 15.097656 -14.457031 C 15.304688 -16.785156 12.742188 -18.398438 8.75 -18.398438 C 4.863281 -18.398438 2.125 -17.015625 2.125 -15.074219 C 2.125 -14.074219 2.890625 -13.332031 4.019531 -13.332031 C 6.652344 -13.332031 6.011719 -17.222656 8.648438 -16.992188 C 10.570312 -16.839844 11.363281 -12.488281 6.730469 -11.132812 C 5.910156 -11.003906 5.09375 -10.800781 5.09375 -10.441406 C 5.09375 -10.109375 5.554688 -9.648438 6.5 -9.671875 C 9.519531 -9.75 10.773438 -8.007812 10.773438 -5.449219 C 10.773438 -2.890625 9.773438 -1.253906 8.136719 -1.152344 C 6.421875 -1.023438 6.039062 -2.535156 5.578125 -4.914062 C 5.375 -6.066406 4.554688 -6.601562 3.480469 -6.601562 C 1.894531 -6.601562 0.894531 -5.65625 0.894531 -4.171875 C 0.894531 -3.734375 0.996094 -3.277344 1.203125 -2.867188 Z M 1.203125 -2.867188 "/></g></g></g><g fill="#4c14bd" fill-opacity="1"><g transform="translate(31.3576, 264.433869)"><g><path d="M 3.75 -11.421875 L 3.75 -1.890625 L 8.875 -1.890625 L 8.875 0 L 1.484375 0 L 1.484375 -11.421875 Z M 3.75 -11.421875 "/></g></g></g><g fill="#4c14bd" fill-opacity="1"><g transform="translate(40.605341, 264.433869)"><g><path d="M 3.359375 0.171875 C 2.804688 0.171875 2.328125 0.0664062 1.921875 -0.140625 C 1.515625 -0.347656 1.203125 -0.644531 0.984375 -1.03125 C 0.765625 -1.425781 0.65625 -1.898438 0.65625 -2.453125 C 0.65625 -2.960938 0.765625 -3.390625 0.984375 -3.734375 C 1.203125 -4.085938 1.539062 -4.375 2 -4.59375 C 2.457031 -4.8125 3.054688 -4.984375 3.796875 -5.109375 C 4.316406 -5.191406 4.707031 -5.28125 4.96875 -5.375 C 5.238281 -5.476562 5.421875 -5.59375 5.515625 -5.71875 C 5.609375 -5.84375 5.65625 -6 5.65625 -6.1875 C 5.65625 -6.46875 5.554688 -6.679688 5.359375 -6.828125 C 5.171875 -6.972656 4.851562 -7.046875 4.40625 -7.046875 C 3.925781 -7.046875 3.46875 -6.9375 3.03125 -6.71875 C 2.601562 -6.507812 2.234375 -6.226562 1.921875 -5.875 L 1.765625 -5.875 L 0.859375 -7.25 C 1.296875 -7.726562 1.828125 -8.101562 2.453125 -8.375 C 3.085938 -8.644531 3.773438 -8.78125 4.515625 -8.78125 C 5.660156 -8.78125 6.488281 -8.535156 7 -8.046875 C 7.507812 -7.566406 7.765625 -6.882812 7.765625 -6 L 7.765625 -2.25 C 7.765625 -1.863281 7.929688 -1.671875 8.265625 -1.671875 C 8.398438 -1.671875 8.53125 -1.695312 8.65625 -1.75 L 8.765625 -1.71875 L 8.921875 -0.203125 C 8.796875 -0.128906 8.625 -0.0664062 8.40625 -0.015625 C 8.195312 0.0351562 7.96875 0.0625 7.71875 0.0625 C 7.195312 0.0625 6.789062 -0.0351562 6.5 -0.234375 C 6.21875 -0.429688 6.015625 -0.742188 5.890625 -1.171875 L 5.71875 -1.1875 C 5.300781 -0.28125 4.515625 0.171875 3.359375 0.171875 Z M 4.046875 -1.453125 C 4.546875 -1.453125 4.945312 -1.617188 5.25 -1.953125 C 5.550781 -2.296875 5.703125 -2.765625 5.703125 -3.359375 L 5.703125 -4.234375 L 5.546875 -4.265625 C 5.421875 -4.160156 5.25 -4.070312 5.03125 -4 C 4.820312 -3.9375 4.519531 -3.867188 4.125 -3.796875 C 3.65625 -3.722656 3.316406 -3.585938 3.109375 -3.390625 C 2.910156 -3.203125 2.8125 -2.9375 2.8125 -2.59375 C 2.8125 -2.21875 2.921875 -1.929688 3.140625 -1.734375 C 3.359375 -1.546875 3.660156 -1.453125 4.046875 -1.453125 Z M 4.046875 -1.453125 "/></g></g></g><g fill="#4c14bd" fill-opacity="1"><g transform="translate(49.689065, 264.433869)"><g><path d="M 1.25 0 L 1.25 -8.625 L 3.328125 -8.625 L 3.328125 -7.359375 L 3.484375 -7.3125 C 4.023438 -8.289062 4.894531 -8.78125 6.09375 -8.78125 C 7.09375 -8.78125 7.820312 -8.507812 8.28125 -7.96875 C 8.75 -7.425781 8.984375 -6.640625 8.984375 -5.609375 L 8.984375 0 L 6.828125 0 L 6.828125 -5.34375 C 6.828125 -5.914062 6.710938 -6.328125 6.484375 -6.578125 C 6.253906 -6.828125 5.882812 -6.953125 5.375 -6.953125 C 4.757812 -6.953125 4.273438 -6.75 3.921875 -6.34375 C 3.578125 -5.945312 3.40625 -5.320312 3.40625 -4.46875 L 3.40625 0 Z M 1.25 0 "/></g></g></g><g fill="#4c14bd" fill-opacity="1"><g transform="translate(59.78035, 264.433869)"><g><path d="M 4.265625 0.171875 C 3.578125 0.171875 2.972656 0.00390625 2.453125 -0.328125 C 1.929688 -0.660156 1.519531 -1.160156 1.21875 -1.828125 C 0.925781 -2.503906 0.78125 -3.332031 0.78125 -4.3125 C 0.78125 -5.289062 0.929688 -6.113281 1.234375 -6.78125 C 1.535156 -7.457031 1.957031 -7.957031 2.5 -8.28125 C 3.039062 -8.613281 3.664062 -8.78125 4.375 -8.78125 C 4.90625 -8.78125 5.367188 -8.6875 5.765625 -8.5 C 6.160156 -8.320312 6.492188 -8.035156 6.765625 -7.640625 L 6.921875 -7.6875 L 6.921875 -12.078125 L 9.09375 -12.078125 L 9.09375 0 L 6.921875 0 L 6.921875 -1.125 L 6.765625 -1.15625 C 6.523438 -0.75 6.195312 -0.425781 5.78125 -0.1875 C 5.363281 0.0507812 4.859375 0.171875 4.265625 0.171875 Z M 4.96875 -1.671875 C 5.570312 -1.671875 6.050781 -1.890625 6.40625 -2.328125 C 6.757812 -2.765625 6.9375 -3.425781 6.9375 -4.3125 C 6.9375 -5.195312 6.757812 -5.859375 6.40625 -6.296875 C 6.050781 -6.734375 5.570312 -6.953125 4.96875 -6.953125 C 4.332031 -6.953125 3.84375 -6.738281 3.5 -6.3125 C 3.164062 -5.882812 3 -5.21875 3 -4.3125 C 3 -3.40625 3.164062 -2.738281 3.5 -2.3125 C 3.84375 -1.882812 4.332031 -1.671875 4.96875 -1.671875 Z M 4.96875 -1.671875 "/></g></g></g><g fill="#4c14bd" fill-opacity="1"><g transform="translate(148.382806, 264.433869)"><g><path d="M 6.25 0.171875 C 5.195312 0.171875 4.269531 -0.046875 3.46875 -0.484375 C 2.664062 -0.929688 2.035156 -1.59375 1.578125 -2.46875 C 1.128906 -3.34375 0.90625 -4.425781 0.90625 -5.71875 C 0.90625 -7 1.128906 -8.078125 1.578125 -8.953125 C 2.035156 -9.835938 2.664062 -10.5 3.46875 -10.9375 C 4.269531 -11.375 5.195312 -11.59375 6.25 -11.59375 C 7.34375 -11.59375 8.273438 -11.375 9.046875 -10.9375 C 9.816406 -10.507812 10.363281 -9.859375 10.6875 -8.984375 L 9.046875 -7.96875 L 8.84375 -7.984375 C 8.601562 -8.578125 8.269531 -9 7.84375 -9.25 C 7.425781 -9.507812 6.894531 -9.640625 6.25 -9.640625 C 5.300781 -9.640625 4.5625 -9.328125 4.03125 -8.703125 C 3.5 -8.078125 3.234375 -7.082031 3.234375 -5.71875 C 3.234375 -4.351562 3.5 -3.359375 4.03125 -2.734375 C 4.5625 -2.109375 5.300781 -1.796875 6.25 -1.796875 C 7.726562 -1.796875 8.632812 -2.515625 8.96875 -3.953125 L 9.171875 -3.953125 L 10.828125 -3.09375 C 10.515625 -2.007812 9.976562 -1.191406 9.21875 -0.640625 C 8.46875 -0.0976562 7.476562 0.171875 6.25 0.171875 Z M 6.25 0.171875 "/></g></g></g><g fill="#4c14bd" fill-opacity="1"><g transform="translate(159.583195, 264.433869)"><g><path d="M 5.015625 0.171875 C 4.171875 0.171875 3.425781 0 2.78125 -0.34375 C 2.144531 -0.695312 1.648438 -1.207031 1.296875 -1.875 C 0.953125 -2.550781 0.78125 -3.363281 0.78125 -4.3125 C 0.78125 -5.257812 0.953125 -6.066406 1.296875 -6.734375 C 1.648438 -7.410156 2.144531 -7.921875 2.78125 -8.265625 C 3.425781 -8.609375 4.171875 -8.78125 5.015625 -8.78125 C 5.859375 -8.78125 6.597656 -8.609375 7.234375 -8.265625 C 7.867188 -7.921875 8.363281 -7.410156 8.71875 -6.734375 C 9.070312 -6.066406 9.25 -5.257812 9.25 -4.3125 C 9.25 -3.363281 9.070312 -2.550781 8.71875 -1.875 C 8.363281 -1.207031 7.867188 -0.695312 7.234375 -0.34375 C 6.597656 0 5.859375 0.171875 5.015625 0.171875 Z M 5.015625 -1.671875 C 6.347656 -1.671875 7.015625 -2.550781 7.015625 -4.3125 C 7.015625 -5.21875 6.84375 -5.882812 6.5 -6.3125 C 6.15625 -6.738281 5.660156 -6.953125 5.015625 -6.953125 C 3.671875 -6.953125 3 -6.070312 3 -4.3125 C 3 -2.550781 3.671875 -1.671875 5.015625 -1.671875 Z M 5.015625 -1.671875 "/></g></g></g><g fill="#4c14bd" fill-opacity="1"><g transform="translate(169.596374, 264.433869)"><g><path d="M 1.25 0 L 1.25 -8.625 L 3.328125 -8.625 L 3.328125 -7.359375 L 3.484375 -7.3125 C 4.023438 -8.289062 4.894531 -8.78125 6.09375 -8.78125 C 7.09375 -8.78125 7.820312 -8.507812 8.28125 -7.96875 C 8.75 -7.425781 8.984375 -6.640625 8.984375 -5.609375 L 8.984375 0 L 6.828125 0 L 6.828125 -5.34375 C 6.828125 -5.914062 6.710938 -6.328125 6.484375 -6.578125 C 6.253906 -6.828125 5.882812 -6.953125 5.375 -6.953125 C 4.757812 -6.953125 4.273438 -6.75 3.921875 -6.34375 C 3.578125 -5.945312 3.40625 -5.320312 3.40625 -4.46875 L 3.40625 0 Z M 1.25 0 "/></g></g></g><g fill="#4c14bd" fill-opacity="1"><g transform="translate(179.687659, 264.433869)"><g><path d="M 4.03125 0.171875 C 3.445312 0.171875 2.910156 0.101562 2.421875 -0.03125 C 1.929688 -0.175781 1.507812 -0.367188 1.15625 -0.609375 C 0.8125 -0.859375 0.554688 -1.140625 0.390625 -1.453125 L 1.59375 -2.75 L 1.765625 -2.75 C 2.046875 -2.363281 2.378906 -2.070312 2.765625 -1.875 C 3.160156 -1.6875 3.585938 -1.59375 4.046875 -1.59375 C 4.472656 -1.59375 4.789062 -1.664062 5 -1.8125 C 5.21875 -1.96875 5.328125 -2.1875 5.328125 -2.46875 C 5.328125 -2.6875 5.25 -2.867188 5.09375 -3.015625 C 4.9375 -3.160156 4.6875 -3.273438 4.34375 -3.359375 L 3.203125 -3.640625 C 2.347656 -3.835938 1.722656 -4.144531 1.328125 -4.5625 C 0.941406 -4.988281 0.75 -5.523438 0.75 -6.171875 C 0.75 -6.703125 0.882812 -7.164062 1.15625 -7.5625 C 1.425781 -7.957031 1.8125 -8.257812 2.3125 -8.46875 C 2.8125 -8.675781 3.390625 -8.78125 4.046875 -8.78125 C 4.828125 -8.78125 5.472656 -8.664062 5.984375 -8.4375 C 6.492188 -8.21875 6.890625 -7.921875 7.171875 -7.546875 L 6.015625 -6.296875 L 5.859375 -6.296875 C 5.617188 -6.566406 5.347656 -6.765625 5.046875 -6.890625 C 4.753906 -7.015625 4.421875 -7.078125 4.046875 -7.078125 C 3.191406 -7.078125 2.765625 -6.8125 2.765625 -6.28125 C 2.765625 -6.0625 2.84375 -5.878906 3 -5.734375 C 3.164062 -5.597656 3.445312 -5.484375 3.84375 -5.390625 L 4.90625 -5.15625 C 5.78125 -4.96875 6.421875 -4.664062 6.828125 -4.25 C 7.234375 -3.84375 7.4375 -3.289062 7.4375 -2.59375 C 7.4375 -2.039062 7.300781 -1.554688 7.03125 -1.140625 C 6.757812 -0.722656 6.367188 -0.398438 5.859375 -0.171875 C 5.347656 0.0546875 4.738281 0.171875 4.03125 0.171875 Z M 4.03125 0.171875 "/></g></g></g><g fill="#4c14bd" fill-opacity="1"><g transform="translate(187.631037, 264.433869)"><g><path d="M 5.953125 -2.0625 L 6.515625 -0.453125 C 6.273438 -0.265625 5.976562 -0.113281 5.625 0 C 5.269531 0.113281 4.867188 0.171875 4.421875 0.171875 C 3.492188 0.171875 2.785156 -0.0820312 2.296875 -0.59375 C 1.816406 -1.101562 1.578125 -1.84375 1.578125 -2.8125 L 1.578125 -6.90625 L 0.265625 -6.90625 L 0.265625 -8.625 L 1.578125 -8.625 L 1.578125 -10.3125 L 3.734375 -10.65625 L 3.734375 -8.625 L 6.1875 -8.625 L 6.1875 -6.90625 L 3.734375 -6.90625 L 3.734375 -2.96875 C 3.734375 -2.539062 3.820312 -2.226562 4 -2.03125 C 4.175781 -1.84375 4.4375 -1.75 4.78125 -1.75 C 5.164062 -1.75 5.5 -1.851562 5.78125 -2.0625 Z M 5.953125 -2.0625 "/></g></g></g><g fill="#4c14bd" fill-opacity="1"><g transform="translate(194.324721, 264.433869)"><g><path d="M 1.25 0 L 1.25 -8.625 L 3.34375 -8.625 L 3.34375 -7.34375 L 3.515625 -7.3125 C 3.722656 -7.789062 3.992188 -8.140625 4.328125 -8.359375 C 4.671875 -8.585938 5.082031 -8.703125 5.5625 -8.703125 C 6.050781 -8.703125 6.425781 -8.617188 6.6875 -8.453125 L 6.3125 -6.578125 L 6.15625 -6.546875 C 6.007812 -6.609375 5.867188 -6.648438 5.734375 -6.671875 C 5.609375 -6.703125 5.453125 -6.71875 5.265625 -6.71875 C 4.660156 -6.71875 4.195312 -6.503906 3.875 -6.078125 C 3.5625 -5.648438 3.40625 -4.96875 3.40625 -4.03125 L 3.40625 0 Z M 1.25 0 "/></g></g></g><g fill="#4c14bd" fill-opacity="1"><g transform="translate(201.080889, 264.433869)"><g><path d="M 3.953125 0.171875 C 2.984375 0.171875 2.265625 -0.09375 1.796875 -0.625 C 1.335938 -1.15625 1.109375 -1.914062 1.109375 -2.90625 L 1.109375 -8.625 L 3.28125 -8.625 L 3.28125 -3.1875 C 3.28125 -2.65625 3.390625 -2.269531 3.609375 -2.03125 C 3.835938 -1.789062 4.191406 -1.671875 4.671875 -1.671875 C 5.265625 -1.671875 5.726562 -1.863281 6.0625 -2.25 C 6.394531 -2.644531 6.5625 -3.265625 6.5625 -4.109375 L 6.5625 -8.625 L 8.734375 -8.625 L 8.734375 0 L 6.65625 0 L 6.65625 -1.265625 L 6.484375 -1.3125 C 6.210938 -0.8125 5.875 -0.4375 5.46875 -0.1875 C 5.070312 0.0507812 4.566406 0.171875 3.953125 0.171875 Z M 3.953125 0.171875 "/></g></g></g><g fill="#4c14bd" fill-opacity="1"><g transform="translate(211.047204, 264.433869)"><g><path d="M 5.03125 0.171875 C 4.195312 0.171875 3.457031 0 2.8125 -0.34375 C 2.175781 -0.695312 1.675781 -1.207031 1.3125 -1.875 C 0.957031 -2.550781 0.78125 -3.363281 0.78125 -4.3125 C 0.78125 -5.257812 0.957031 -6.066406 1.3125 -6.734375 C 1.675781 -7.410156 2.175781 -7.921875 2.8125 -8.265625 C 3.445312 -8.609375 4.171875 -8.78125 4.984375 -8.78125 C 6.804688 -8.78125 7.972656 -8.125 8.484375 -6.8125 L 7 -5.75 L 6.828125 -5.75 C 6.648438 -6.15625 6.421875 -6.457031 6.140625 -6.65625 C 5.859375 -6.851562 5.472656 -6.953125 4.984375 -6.953125 C 4.359375 -6.953125 3.867188 -6.734375 3.515625 -6.296875 C 3.171875 -5.867188 3 -5.207031 3 -4.3125 C 3 -3.425781 3.175781 -2.765625 3.53125 -2.328125 C 3.882812 -1.890625 4.382812 -1.671875 5.03125 -1.671875 C 5.5 -1.671875 5.894531 -1.796875 6.21875 -2.046875 C 6.539062 -2.304688 6.773438 -2.671875 6.921875 -3.140625 L 7.078125 -3.15625 L 8.625 -2.3125 C 8.40625 -1.582031 8 -0.984375 7.40625 -0.515625 C 6.8125 -0.0546875 6.019531 0.171875 5.03125 0.171875 Z M 5.03125 0.171875 "/></g></g></g><g fill="#4c14bd" fill-opacity="1"><g transform="translate(219.927853, 264.433869)"><g><path d="M 5.953125 -2.0625 L 6.515625 -0.453125 C 6.273438 -0.265625 5.976562 -0.113281 5.625 0 C 5.269531 0.113281 4.867188 0.171875 4.421875 0.171875 C 3.492188 0.171875 2.785156 -0.0820312 2.296875 -0.59375 C 1.816406 -1.101562 1.578125 -1.84375 1.578125 -2.8125 L 1.578125 -6.90625 L 0.265625 -6.90625 L 0.265625 -8.625 L 1.578125 -8.625 L 1.578125 -10.3125 L 3.734375 -10.65625 L 3.734375 -8.625 L 6.1875 -8.625 L 6.1875 -6.90625 L 3.734375 -6.90625 L 3.734375 -2.96875 C 3.734375 -2.539062 3.820312 -2.226562 4 -2.03125 C 4.175781 -1.84375 4.4375 -1.75 4.78125 -1.75 C 5.164062 -1.75 5.5 -1.851562 5.78125 -2.0625 Z M 5.953125 -2.0625 "/></g></g></g><g fill="#4c14bd" fill-opacity="1"><g transform="translate(301.036508, 264.433869)"><g><path d="M 8.734375 -11.421875 L 8.734375 -9.53125 L 3.75 -9.53125 L 3.75 -6.515625 L 8.265625 -6.515625 L 8.265625 -4.640625 L 3.75 -4.640625 L 3.75 0 L 1.484375 0 L 1.484375 -11.421875 Z M 8.734375 -11.421875 "/></g></g></g><g fill="#4c14bd" fill-opacity="1"><g transform="translate(310.268628, 264.433869)"><g><path d="M 2.328125 -9.65625 C 1.929688 -9.65625 1.609375 -9.769531 1.359375 -10 C 1.117188 -10.238281 1 -10.546875 1 -10.921875 C 1 -11.296875 1.117188 -11.597656 1.359375 -11.828125 C 1.609375 -12.066406 1.929688 -12.1875 2.328125 -12.1875 C 2.585938 -12.1875 2.816406 -12.128906 3.015625 -12.015625 C 3.222656 -11.910156 3.378906 -11.765625 3.484375 -11.578125 C 3.597656 -11.390625 3.65625 -11.171875 3.65625 -10.921875 C 3.65625 -10.679688 3.597656 -10.460938 3.484375 -10.265625 C 3.378906 -10.078125 3.222656 -9.925781 3.015625 -9.8125 C 2.816406 -9.707031 2.585938 -9.65625 2.328125 -9.65625 Z M 1.25 0 L 1.25 -8.625 L 3.40625 -8.625 L 3.40625 0 Z M 1.25 0 "/></g></g></g><g fill="#4c14bd" fill-opacity="1"><g transform="translate(314.908119, 264.433869)"><g><path d="M 1.25 0 L 1.25 -8.625 L 3.328125 -8.625 L 3.328125 -7.359375 L 3.484375 -7.3125 C 4.023438 -8.289062 4.894531 -8.78125 6.09375 -8.78125 C 7.09375 -8.78125 7.820312 -8.507812 8.28125 -7.96875 C 8.75 -7.425781 8.984375 -6.640625 8.984375 -5.609375 L 8.984375 0 L 6.828125 0 L 6.828125 -5.34375 C 6.828125 -5.914062 6.710938 -6.328125 6.484375 -6.578125 C 6.253906 -6.828125 5.882812 -6.953125 5.375 -6.953125 C 4.757812 -6.953125 4.273438 -6.75 3.921875 -6.34375 C 3.578125 -5.945312 3.40625 -5.320312 3.40625 -4.46875 L 3.40625 0 Z M 1.25 0 "/></g></g></g><g fill="#4c14bd" fill-opacity="1"><g transform="translate(324.999405, 264.433869)"><g><path d="M 2.328125 -9.65625 C 1.929688 -9.65625 1.609375 -9.769531 1.359375 -10 C 1.117188 -10.238281 1 -10.546875 1 -10.921875 C 1 -11.296875 1.117188 -11.597656 1.359375 -11.828125 C 1.609375 -12.066406 1.929688 -12.1875 2.328125 -12.1875 C 2.585938 -12.1875 2.816406 -12.128906 3.015625 -12.015625 C 3.222656 -11.910156 3.378906 -11.765625 3.484375 -11.578125 C 3.597656 -11.390625 3.65625 -11.171875 3.65625 -10.921875 C 3.65625 -10.679688 3.597656 -10.460938 3.484375 -10.265625 C 3.378906 -10.078125 3.222656 -9.925781 3.015625 -9.8125 C 2.816406 -9.707031 2.585938 -9.65625 2.328125 -9.65625 Z M 1.25 0 L 1.25 -8.625 L 3.40625 -8.625 L 3.40625 0 Z M 1.25 0 "/></g></g></g><g fill="#4c14bd" fill-opacity="1"><g transform="translate(329.638896, 264.433869)"><g><path d="M 4.03125 0.171875 C 3.445312 0.171875 2.910156 0.101562 2.421875 -0.03125 C 1.929688 -0.175781 1.507812 -0.367188 1.15625 -0.609375 C 0.8125 -0.859375 0.554688 -1.140625 0.390625 -1.453125 L 1.59375 -2.75 L 1.765625 -2.75 C 2.046875 -2.363281 2.378906 -2.070312 2.765625 -1.875 C 3.160156 -1.6875 3.585938 -1.59375 4.046875 -1.59375 C 4.472656 -1.59375 4.789062 -1.664062 5 -1.8125 C 5.21875 -1.96875 5.328125 -2.1875 5.328125 -2.46875 C 5.328125 -2.6875 5.25 -2.867188 5.09375 -3.015625 C 4.9375 -3.160156 4.6875 -3.273438 4.34375 -3.359375 L 3.203125 -3.640625 C 2.347656 -3.835938 1.722656 -4.144531 1.328125 -4.5625 C 0.941406 -4.988281 0.75 -5.523438 0.75 -6.171875 C 0.75 -6.703125 0.882812 -7.164062 1.15625 -7.5625 C 1.425781 -7.957031 1.8125 -8.257812 2.3125 -8.46875 C 2.8125 -8.675781 3.390625 -8.78125 4.046875 -8.78125 C 4.828125 -8.78125 5.472656 -8.664062 5.984375 -8.4375 C 6.492188 -8.21875 6.890625 -7.921875 7.171875 -7.546875 L 6.015625 -6.296875 L 5.859375 -6.296875 C 5.617188 -6.566406 5.347656 -6.765625 5.046875 -6.890625 C 4.753906 -7.015625 4.421875 -7.078125 4.046875 -7.078125 C 3.191406 -7.078125 2.765625 -6.8125 2.765625 -6.28125 C 2.765625 -6.0625 2.84375 -5.878906 3 -5.734375 C 3.164062 -5.597656 3.445312 -5.484375 3.84375 -5.390625 L 4.90625 -5.15625 C 5.78125 -4.96875 6.421875 -4.664062 6.828125 -4.25 C 7.234375 -3.84375 7.4375 -3.289062 7.4375 -2.59375 C 7.4375 -2.039062 7.300781 -1.554688 7.03125 -1.140625 C 6.757812 -0.722656 6.367188 -0.398438 5.859375 -0.171875 C 5.347656 0.0546875 4.738281 0.171875 4.03125 0.171875 Z M 4.03125 0.171875 "/></g></g></g><g fill="#4c14bd" fill-opacity="1"><g transform="translate(337.582274, 264.433869)"><g><path d="M 1.25 0 L 1.25 -12.078125 L 3.40625 -12.078125 L 3.40625 -7.5 L 3.578125 -7.46875 C 3.859375 -7.882812 4.207031 -8.207031 4.625 -8.4375 C 5.039062 -8.664062 5.546875 -8.78125 6.140625 -8.78125 C 8.035156 -8.78125 8.984375 -7.703125 8.984375 -5.546875 L 8.984375 0 L 6.828125 0 L 6.828125 -5.28125 C 6.828125 -5.863281 6.707031 -6.285156 6.46875 -6.546875 C 6.238281 -6.816406 5.875 -6.953125 5.375 -6.953125 C 4.769531 -6.953125 4.289062 -6.75 3.9375 -6.34375 C 3.582031 -5.945312 3.40625 -5.320312 3.40625 -4.46875 L 3.40625 0 Z M 1.25 0 "/></g></g></g></svg>
